<svg width="100%" height="100%" id="svg" viewBox="0 0 1440 400" xmlns="http://www.w3.org/2000/svg" class="transition duration-300 ease-in-out delay-150"><defs><linearGradient id="gradient" x1="50%" y1="100%" x2="50%" y2="0%"><stop offset="5%" stop-color="#c52829"></stop><stop offset="95%" stop-color="#ffffff"></stop></linearGradient></defs><path d="M 0,400 C 0,400 0,133 0,133 C 54.69230769230768,137.47692307692307 109.38461538461536,141.95384615384614 202,154 C 294.61538461538464,166.04615384615386 425.1538461538462,185.66153846153847 517,180 C 608.8461538461538,174.33846153846153 662,143.39999999999998 733,120 C 804,96.60000000000001 892.8461538461538,80.73846153846154 972,96 C 1051.1538461538462,111.26153846153846 1120.6153846153845,157.64615384615385 1197,169 C 1273.3846153846155,180.35384615384615 1356.6923076923076,156.67692307692306 1440,133 C 1440,133 1440,400 1440,400 Z" stroke="none" stroke-width="0" fill="url(#gradient)" fill-opacity="0.53" class="transition-all duration-300 ease-in-out delay-150 path-0"></path><defs><linearGradient id="gradient" x1="50%" y1="100%" x2="50%" y2="0%"><stop offset="5%" stop-color="#c52829"></stop><stop offset="95%" stop-color="#ffffff"></stop></linearGradient></defs><path d="M 0,400 C 0,400 0,266 0,266 C 63.07435897435897,270.8538461538461 126.14871794871794,275.7076923076923 213,268 C 299.85128205128206,260.2923076923077 410.47948717948725,240.02307692307693 506,238 C 601.5205128205127,235.97692307692307 681.9333333333334,252.20000000000005 748,266 C 814.0666666666666,279.79999999999995 865.7871794871794,291.17692307692306 949,300 C 1032.2128205128206,308.82307692307694 1146.9179487179488,315.09230769230766 1234,309 C 1321.0820512820512,302.90769230769234 1380.5410256410255,284.45384615384614 1440,266 C 1440,266 1440,400 1440,400 Z" stroke="none" stroke-width="0" fill="url(#gradient)" fill-opacity="1" class="transition-all duration-300 ease-in-out delay-150 path-1"></path></svg>